<?xml version="1.0" standalone="no"?>
<!DOCTYPE svg PUBLIC "-//W3C//DTD SVG 20010904//EN"
 "http://www.w3.org/TR/2001/REC-SVG-20010904/DTD/svg10.dtd">
<svg version="1.0" xmlns="http://www.w3.org/2000/svg"
 width="210.000000pt" height="204.000000pt" viewBox="0 0 210.000000 204.000000"
 preserveAspectRatio="xMidYMid meet">

<g transform="translate(0.000000,204.000000) scale(0.100000,-0.100000)"
fill="#000000" stroke="none">
<path d="M0 1020 l0 -1020 1050 0 1050 0 0 1020 0 1020 -1050 0 -1050 0 0
-1020z m435 836 c59 -25 83 -107 50 -170 l-15 -28 187 -263 187 -263 28 14
c25 13 28 19 23 52 -8 59 -25 205 -25 219 0 7 -20 21 -44 32 -57 25 -80 66
-71 127 10 72 79 109 148 80 75 -31 97 -129 42 -186 -16 -17 -35 -30 -42 -30
-16 0 -16 2 2 -150 8 -69 15 -128 15 -131 0 -6 37 -16 81 -22 10 -1 98 84 217
208 l202 210 -7 52 c-7 63 11 98 57 108 41 9 82 -9 103 -44 44 -75 -9 -152
-94 -136 -33 6 -37 3 -239 -209 -112 -118 -206 -218 -207 -223 -2 -4 1 -14 5
-20 6 -10 44 -3 157 27 192 51 191 51 199 94 4 22 19 45 38 61 70 59 183 3
183 -89 0 -111 -117 -155 -196 -73 -22 23 -28 26 -20 10 6 -12 23 -31 37 -42
15 -12 22 -21 16 -21 -17 0 -72 50 -72 66 0 16 12 19 -187 -35 -136 -37 -138
-38 -141 -67 l-3 -29 314 -107 315 -107 23 26 c32 35 83 55 117 47 78 -19 112
-61 112 -137 0 -80 -70 -136 -144 -116 -60 17 -99 58 -107 115 l-6 49 -2 -41
c-1 -51 30 -102 79 -126 19 -10 28 -18 20 -18 -23 0 -77 36 -95 63 -9 14 -19
42 -22 63 -3 22 -11 42 -17 46 -7 5 -3 8 9 8 11 1 -117 48 -284 106 -168 58
-311 102 -319 99 -7 -3 -12 -11 -10 -19 2 -8 53 -73 113 -145 99 -118 113
-131 143 -131 60 0 95 -68 55 -112 -36 -40 -103 -9 -103 48 0 19 -4 33 -9 31
-10 -3 -231 261 -231 276 1 7 8 3 18 -8 9 -11 61 -73 116 -138 54 -64 100
-117 103 -117 7 0 -3 13 -125 157 -69 82 -108 120 -117 116 -8 -3 -15 -12 -15
-20 0 -9 41 -149 90 -312 50 -163 93 -303 96 -312 2 -9 18 -19 34 -22 85 -18
104 -128 28 -165 -23 -10 -33 -10 -62 2 -58 24 -75 90 -36 139 l21 26 -98 318
c-83 268 -102 318 -118 321 -11 2 -37 10 -57 19 l-37 16 -200 -193 c-168 -162
-199 -196 -191 -211 18 -33 11 -90 -15 -125 -45 -59 -122 -53 -175 13 -18 23
-21 37 -17 76 7 83 63 119 141 92 l39 -14 199 191 c148 142 197 195 192 207
-4 9 -9 26 -11 39 -3 12 -8 24 -12 26 -4 3 -105 16 -226 30 -121 15 -230 29
-242 31 -16 4 -30 -2 -45 -20 -28 -32 -62 -32 -94 1 -20 19 -24 31 -19 52 9
38 24 52 54 52 31 0 44 -8 59 -36 10 -19 33 -23 244 -48 128 -16 242 -29 252
-29 12 -1 26 10 38 29 l18 31 -181 254 c-100 140 -185 258 -190 264 -31 33 13
-32 175 -260 102 -142 183 -262 180 -267 -3 -5 -17 8 -31 29 -14 21 -97 138
-184 260 -88 122 -159 226 -159 231 0 5 -19 10 -42 10 -74 1 -122 55 -115 130
9 83 73 120 152 88z m-161 -134 c6 -41 23 -61 71 -86 17 -9 23 -16 15 -16 -48
0 -110 73 -110 130 0 34 17 14 24 -28z m1123 -89 c-1 -16 3 -41 7 -58 7 -28 7
-29 -8 -11 -17 21 -20 53 -10 80 9 23 11 20 11 -11z m-639 -150 c16 -30 51
-53 79 -53 13 0 23 -6 23 -13 0 -14 17 -159 25 -219 3 -21 1 -38 -4 -38 -5 0
-14 54 -21 119 -7 66 -16 123 -19 128 -3 4 -24 17 -46 28 -49 25 -76 74 -67
125 l6 35 6 -45 c3 -25 11 -55 18 -67z m619 -305 c-3 -7 -5 -2 -5 12 0 14 2
19 5 13 2 -7 2 -19 0 -25z m-1200 -125 c9 -7 13 -16 9 -20 -13 -14 -46 38 -45
71 l1 31 10 -35 c5 -19 17 -41 25 -47z m210 11 c-3 -3 -12 -4 -19 -1 -8 3 -5
6 6 6 11 1 17 -2 13 -5z m80 -10 c-3 -3 -12 -4 -19 -1 -8 3 -5 6 6 6 11 1 17
-2 13 -5z m170 -20 c-3 -3 -12 -4 -19 -1 -8 3 -5 6 6 6 11 1 17 -2 13 -5z m80
-10 c-3 -3 -12 -4 -19 -1 -8 3 -5 6 6 6 11 1 17 -2 13 -5z m73 -25 c0 -11 5
-29 10 -40 7 -13 7 -19 0 -19 -5 0 -10 2 -10 4 0 2 -7 20 -15 40 -14 32 -14
36 0 36 8 0 15 -9 15 -21z m587 -165 c-5 -5 -310 96 -321 107 -6 5 66 -16 158
-47 92 -31 165 -58 163 -60z m-502 56 c13 -6 15 -9 5 -9 -8 0 -22 4 -30 9 -18
12 -2 12 25 0z m169 -326 c82 -269 102 -346 82 -323 -1 2 -45 141 -96 309 -51
168 -95 311 -97 318 -3 6 -1 12 4 12 5 0 53 -142 107 -316z m216 -35 c14 -10
19 -19 12 -19 -24 0 -62 48 -61 77 1 28 1 28 13 -5 6 -19 23 -42 36 -53z
m-1033 -31 c-3 -8 -6 -5 -6 6 -1 11 2 17 5 13 3 -3 4 -12 1 -19z m3 -51 c0
-30 25 -64 64 -88 17 -10 25 -19 18 -19 -27 0 -70 34 -86 67 -18 38 -21 78 -6
68 6 -3 10 -16 10 -28z m870 -306 c0 -22 47 -71 68 -71 8 0 12 -3 9 -6 -12
-13 -68 19 -82 47 -17 32 -20 63 -5 54 6 -3 10 -14 10 -24z"/>
</g>
</svg>
